<?xml version="1.0" encoding="iso-8859-1"?>
<!-- Uploaded to: SVG Repo, www.svgrepo.com, Generator: SVG Repo Mixer Tools -->
<svg fill="#000000" height="800px" width="800px" version="1.1" id="Layer_1" xmlns="http://www.w3.org/2000/svg" xmlns:xlink="http://www.w3.org/1999/xlink" 
	 viewBox="0 0 512 512" xml:space="preserve">
<g>
	<g>
		<g>
			<path d="M57.431,158.218c-5.634-1.722-11.6,1.444-13.325,7.077l-0.141,0.456c-1.702,5.641,1.492,11.593,7.135,13.294
				c1.026,0.31,2.063,0.457,3.084,0.457c4.583,0,8.82-2.978,10.21-7.592l0.114-0.368C66.233,165.909,63.064,159.943,57.431,158.218z
				"/>
			<path d="M490.129,114.051c-16.201-27.268-39.025-53.275-54.461-66.955c-35.885-31.786-66.727-30.81-81.917-27.401
				c-4.178,0.939-8.17,2.267-11.936,3.964C318.063,7.795,289.712,0.01,256,0.01c-33.716,0-62.068,7.785-85.818,23.649
				c-3.765-1.696-7.757-3.024-11.936-3.963c-15.19-3.413-46.03-4.387-81.916,27.402c-15.435,13.675-38.259,39.681-54.462,66.956
				c-23.223,39.098-27.978,71.478-14.131,96.238c11.271,20.149,28.21,32.785,50.447,37.691c-2.959,14.425-4.701,30.115-4.701,48.795
				c0,25.773,4.799,48.737,14.275,68.502c-1.148,35.333,7.828,63.544,26.71,83.879c30.39,32.728,82.124,40.244,126.586,42.169
				l0.031,10.027c0.011,3.453,1.692,6.688,4.512,8.681c2.821,1.993,6.432,2.497,9.69,1.353l19.798-6.949l21.896,7.04
				c1.069,0.344,2.17,0.512,3.265,0.512c2.273,0,4.517-0.727,6.385-2.122c2.766-2.066,4.362-5.345,4.281-8.797l-0.229-9.733
				c44.604-1.913,96.421-9.436,126.824-42.152c18.902-20.34,27.888-48.566,26.738-83.921c9.475-19.76,14.273-42.72,14.273-68.489
				c0-18.68-1.742-34.37-4.702-48.796c22.236-4.906,39.176-17.542,50.448-37.692C518.109,185.53,513.353,153.151,490.129,114.051z
				 M63.413,227.286c-16.696-3.469-28.61-12.312-37.055-27.41c-9.862-17.636-5.201-42.845,13.854-74.927
				c15.026-25.295,36.074-49.306,50.266-61.88c26.192-23.201,47.681-24.936,59.782-23.163c-2.376,2.331-4.701,4.753-6.965,7.291
				c-14.606,16.359-25.72,35.769-34.855,56.264c-18.568,2.315-36.588,17.434-48.129,32.174c-3.633,4.64-2.818,11.345,1.821,14.976
				c1.952,1.529,4.269,2.27,6.571,2.27c3.167,0,6.302-1.404,8.407-4.091c6.342-8.1,13.698-14.715,20.727-18.988
				c-2.572,7.009-4.996,14.047-7.324,21.042c-4.639,13.932-9.06,25.696-13.34,37.085C72.009,201.672,67.274,214.291,63.413,227.286z
				 M110.104,434.639c-8.841-9.521-14.859-21.162-18.144-35.15c10.652,10.662,23.43,19.666,38.212,26.894
				c21.915,10.711,48.167,17.589,79.585,20.803c-1.464,1.281-2.583,2.943-3.176,4.854c-1.024,3.299-0.387,6.889,1.707,9.633
				l6.068,7.952C175.977,467.39,133.782,460.138,110.104,434.639z M271.019,470.513c-1.362,1.887-2.07,4.168-2.015,6.495l0.1,4.298
				c0,0.004,0,0.01,0,0.015c0,0.005,0.001,0.008,0.001,0.013l0.123,5.239l-11.026-3.545c-1.063-0.341-2.165-0.512-3.266-0.512
				c-1.196,0-2.391,0.201-3.534,0.602l-9.026,3.168l-0.035-11.582c-0.006-2.328-0.776-4.588-2.186-6.439l-5.802-7.603l11.002-3.61
				c2.211-0.727,4.124-2.155,5.448-4.07l5.441-7.869l6.833,9.349c1.374,1.88,3.324,3.258,5.556,3.925l9.163,2.741L271.019,470.513z
				 M222.718,305.483c-4.109-4.103-17.511-18.657-17.511-33.647c0-10.928,4.968-18.557,14.778-22.679
				c7.739-3.261,18.174-4.592,36.016-4.592s28.276,1.33,36.025,4.596c9.8,4.118,14.767,11.747,14.767,22.675
				c0,14.988-13.401,29.544-17.505,33.646c-4.097,4.089-18.597,17.429-33.289,17.429
				C241.298,322.911,226.811,309.572,222.718,305.483z M401.877,434.662c-23.573,25.364-65.54,32.676-103.887,34.943l5.889-8.156
				c2.023-2.8,2.563-6.405,1.452-9.676c-0.611-1.802-1.695-3.365-3.089-4.584c31.41-3.212,57.66-10.09,79.584-20.806
				c14.786-7.23,27.565-16.235,38.215-26.897C416.755,413.487,410.73,425.136,401.877,434.662z M418.651,367.438
				c-10.723,16.649-26.266,30.031-46.195,39.776c-26.114,12.765-59.66,19.521-102.42,20.609l-3.367-4.604v-80.204
				c17.507-3.959,31.74-16.488,37.698-22.438c7.145-7.139,23.762-26.18,23.762-48.741c0-19.475-10.146-34.909-27.826-42.341
				c-10.562-4.451-23.397-6.267-44.301-6.267c-20.907,0-33.742,1.816-44.293,6.262c-17.691,7.435-27.838,22.869-27.838,42.344
				c0,22.564,16.621,41.603,23.766,48.739c5.951,5.949,20.18,18.481,37.696,22.44v80.357l-3.081,4.457
				c-42.904-1.07-76.547-7.83-102.707-20.617c-19.926-9.742-35.471-23.126-46.204-39.777c-12.29-19.076-18.521-42.849-18.521-70.66
				c0-41.915,9.851-68.141,22.329-101.353c4.145-11.026,8.841-23.523,13.609-37.841c11.55-34.701,25.414-70.371,48.456-96.18
				c24.054-26.955,55.713-40.056,96.789-40.056c41.07,0,72.729,13.103,96.79,40.059c23.046,25.816,36.906,61.481,48.449,96.176
				c4.658,13.998,9.127,25.905,13.448,37.419l0.162,0.433c12.477,33.205,22.333,59.433,22.333,101.343
				C437.181,324.589,430.948,348.361,418.651,367.438z M485.643,199.873c-8.447,15.1-20.362,23.943-37.059,27.412
				c-3.862-12.997-8.6-25.617-13.765-39.363l-0.157-0.418c-4.251-11.33-8.647-23.045-13.178-36.66
				c-12.268-36.869-27.151-74.942-52.779-103.649c-2.266-2.538-4.593-4.962-6.97-7.292c12.106-1.773,33.595-0.036,59.783,23.161
				c14.193,12.578,35.24,36.592,50.267,61.882C490.842,157.03,495.503,182.24,485.643,199.873z"/>
			<path d="M206.026,170.54c-10.856,0-19.712,8.856-19.712,19.712c0.001,10.857,8.856,19.713,19.712,19.713
				c10.858,0,19.714-8.856,19.714-19.713S216.884,170.54,206.026,170.54z"/>
			<path d="M305.673,170.54c-10.858,0-19.713,8.856-19.713,19.712c0,10.857,8.855,19.713,19.713,19.713
				c10.859,0,19.713-8.856,19.713-19.713C325.386,179.395,316.532,170.54,305.673,170.54z"/>
			<path d="M256.422,42.673H256c-5.891,0-10.668,4.776-10.668,10.668S250.109,64.01,256,64.01h0.421
				c5.892,0,10.668-4.776,10.668-10.668S262.314,42.673,256.422,42.673z"/>
			<path d="M293.766,47.748c-0.962-0.293-1.931-0.575-2.906-0.843c-5.679-1.557-11.551,1.781-13.112,7.463
				c-1.561,5.681,1.781,11.553,7.461,13.114c0.778,0.213,1.551,0.437,2.321,0.673c13.034,3.981,23.969,11.067,33.428,21.662
				c2.108,2.361,5.028,3.563,7.962,3.563c2.528,0,5.068-0.894,7.101-2.711c4.395-3.924,4.777-10.668,0.853-15.064
				C324.741,62.014,310.638,52.902,293.766,47.748z"/>
			<path d="M177.88,344.113v0.208c0,5.892,4.777,10.668,10.668,10.668s10.668-4.776,10.668-10.668v-0.208
				c0-5.892-4.777-10.668-10.668-10.668S177.88,338.221,177.88,344.113z"/>
			<path d="M193.562,387.191v0.287c0,5.892,4.776,10.668,10.668,10.668c5.892,0,10.668-4.776,10.668-10.668v-0.287
				c0-5.892-4.776-10.668-10.668-10.668C198.337,376.522,193.562,381.298,193.562,387.191z"/>
			<path d="M149.69,359.439c-5.892,0-10.668,4.776-10.668,10.668v0.287c0,5.892,4.776,10.668,10.668,10.668
				s10.668-4.776,10.668-10.668v-0.287C160.359,364.215,155.582,359.439,149.69,359.439z"/>
			<path d="M323.449,333.444c-5.892,0-10.668,4.776-10.668,10.668v0.208c0,5.892,4.776,10.668,10.668,10.668
				c5.892,0,10.668-4.776,10.668-10.668v-0.208C334.117,338.221,329.34,333.444,323.449,333.444z"/>
			<path d="M307.766,376.522c-5.892,0-10.668,4.776-10.668,10.668v0.287c0,5.892,4.776,10.668,10.668,10.668
				c5.892,0,10.668-4.776,10.668-10.668v-0.287C318.435,381.298,313.66,376.522,307.766,376.522z"/>
			<path d="M362.306,359.439c-5.892,0-10.668,4.776-10.668,10.668v0.287c0,5.891,4.776,10.668,10.668,10.668
				c5.892,0,10.668-4.776,10.668-10.668v-0.287C372.975,364.215,368.198,359.439,362.306,359.439z"/>
		</g>
	</g>
</g>
</svg>