<?xml version="1.0" encoding="iso-8859-1"?>
<!-- Uploaded to: SVG Repo, www.svgrepo.com, Generator: SVG Repo Mixer Tools -->
<svg fill="#000000" version="1.1" id="Layer_1" xmlns="http://www.w3.org/2000/svg" xmlns:xlink="http://www.w3.org/1999/xlink" 
	 viewBox="0 0 511.999 511.999" xml:space="preserve">
<g>
	<g>
		<rect x="192.983" y="427.929" width="31.509" height="15.755"/>
	</g>
</g>
<g>
	<g>
		<rect x="287.511" y="427.929" width="31.509" height="15.755"/>
	</g>
</g>
<g>
	<g>
		<rect x="319.02" y="396.419" width="31.509" height="15.755"/>
	</g>
</g>
<g>
	<g>
		<rect x="161.474" y="396.419" width="31.509" height="15.755"/>
	</g>
</g>
<g>
	<g>
		<path d="M437.109,0l-9.977,2.858c-0.978,0.279-24.244,7.042-51.519,23.516c-34.327,20.735-59.488,47.7-73.119,78.271
			c-25.077-2.715-44.117-2.372-46.496-2.316c-2.377-0.055-21.42-0.399-46.496,2.316C195.87,74.074,170.71,47.11,136.384,26.374
			C109.11,9.899,85.844,3.137,84.866,2.858L74.889,0c0,0-1.268,202.799,0.019,211.158c1.563,10.424,3.024,20.925,4.571,32.042
			c2.125,15.276,4.322,31.072,6.829,46.807l15.558-2.478c-2.481-15.581-4.668-31.299-6.782-46.499
			c-1.549-11.134-3.012-21.651-4.588-32.163c-0.809-7.468-0.456-112.208,0.009-187.397c23.894,9.123,84.062,37.143,106.701,94.57
			l2.238,5.678l6.057-0.749c27.891-3.449,50.061-2.89,50.28-2.885l0.219,0.006l0.22-0.006c0.222-0.005,22.313-0.573,50.279,2.885
			l6.057,0.749l2.238-5.678c22.587-57.293,82.797-85.396,106.701-94.555c0.464,75.182,0.817,179.903,0.009,187.381
			c-1.571,10.482-3.034,20.999-4.583,32.132c-8.074,58.041-16.422,118.058-39.305,166.328
			c-12.162,25.653-27.109,45.169-45.692,59.665c-18.997,14.818-41.338,24.041-68.048,28.107v-83.505
			c9.877-1.451,18.007-5.637,24.225-12.517c14.748-16.315,12.497-41.721,12.395-42.795l-0.684-7.125H212.1l-0.697,7.107
			c-0.106,1.073-2.414,26.488,12.309,42.81c6.25,6.931,14.444,11.132,24.414,12.553v83.482c-42.188-6.451-74.21-26.07-97.682-59.802
			c-19.762-28.399-33.767-67.084-44.076-121.747l-15.482,2.92c10.735,56.922,25.551,97.538,46.627,127.825
			c27.828,39.991,66.313,62.104,117.653,67.604l0.839,0.089l0.839-0.089c62.832-6.732,106.995-38.734,135.013-97.834
			c23.919-50.454,32.82-114.446,40.674-170.907c1.545-11.106,3.004-21.596,4.562-31.981C438.377,202.799,437.109,0,437.109,0z
			 M255.894,396.42h-0.087c-8.952-0.05-15.611-2.618-20.358-7.852c-6.222-6.86-7.955-16.927-8.37-23.657h57.702
			c-0.44,6.728-2.199,16.778-8.367,23.601C271.644,393.787,264.954,396.374,255.894,396.42z"/>
	</g>
</g>
<g>
	<g>
		<path d="M192.98,202.113c-21.718,0-39.387,17.668-39.387,39.387c0,21.718,17.668,39.387,39.387,39.387
			c21.718,0,39.387-17.669,39.387-39.387C232.367,219.781,214.698,202.113,192.98,202.113z M192.98,265.131
			c-13.03,0-23.632-10.601-23.632-23.632c0-13.031,10.602-23.632,23.632-23.632c13.03,0,23.632,10.601,23.632,23.632
			C216.612,254.531,206.011,265.131,192.98,265.131z"/>
	</g>
</g>
<g>
	<g>
		<path d="M319.017,202.113c-21.718,0-39.387,17.668-39.387,39.387c0,21.718,17.668,39.387,39.387,39.387
			s39.387-17.668,39.387-39.387C358.404,219.781,340.736,202.113,319.017,202.113z M319.017,265.131
			c-13.03,0-23.632-10.601-23.632-23.632c0-13.031,10.602-23.632,23.632-23.632c13.03,0,23.632,10.601,23.632,23.632
			C342.649,254.531,332.048,265.131,319.017,265.131z"/>
	</g>
</g>
<g>
	<g>
		<path d="M148.944,90.498c-12.143-13.492-37.364-33.155-37.364-33.155v100.132h15.755V90.812
			c14.067,13.513,31.509,34.179,31.509,50.906h15.755C174.599,126.646,165.968,109.412,148.944,90.498z"/>
	</g>
</g>
<g>
	<g>
		<path d="M363.053,90.499c-17.023,18.914-25.655,36.148-25.655,51.221h15.755c0-16.729,17.443-37.395,31.509-50.908v66.662h15.755
			V57.343C400.417,57.343,375.195,77.006,363.053,90.499z"/>
	</g>
</g>
<g>
	<g>
		<rect x="183.52" y="233.621" width="17.704" height="15.755"/>
	</g>
</g>
<g>
	<g>
		<rect x="310.608" y="233.621" width="17.704" height="15.755"/>
	</g>
</g>
</svg>