<?xml version="1.0" encoding="iso-8859-1"?>
<!-- Uploaded to: SVG Repo, www.svgrepo.com, Generator: SVG Repo Mixer Tools -->
<svg fill="#000000" height="800px" width="800px" version="1.1" id="Layer_1" xmlns="http://www.w3.org/2000/svg" xmlns:xlink="http://www.w3.org/1999/xlink" 
	 viewBox="0 0 512 512" xml:space="preserve">
<g>
	<g>
		<path d="M177.74,299.263c-5.255-5.278-12.242-8.185-19.673-8.185c-1.913,0-3.794,0.205-5.627,0.582
			c-1.534-6.623-4.865-12.706-9.774-17.642c-6.944-6.975-16.178-10.816-25.999-10.816c-8.098,0-15.797,2.612-22.142,7.439
			c-6.346-4.827-14.043-7.439-22.143-7.439c-9.821,0-19.055,3.842-26.001,10.819c-6.933,6.967-10.751,16.226-10.751,26.069
			c0,9.849,3.818,19.107,10.75,26.068l38.635,38.848c2.541,2.551,5.918,3.956,9.511,3.956c3.54,0,7.007-1.442,9.516-3.96
			l14.969-15.052l15.478,15.565c2.212,2.223,5.157,3.446,8.288,3.446c3.088,0,6.109-1.257,8.289-3.449l26.678-26.824
			c5.242-5.269,8.128-12.271,8.128-19.715C185.872,311.532,182.984,304.532,177.74,299.263z M94.524,352.343l-37.036-37.241
			c-3.988-4.006-6.186-9.337-6.186-15.012c0-5.672,2.198-11.004,6.187-15.013c3.98-3.999,9.269-6.201,14.892-6.201
			c5.623,0,10.912,2.202,14.891,6.199l1.696,1.705c1.47,1.479,3.469,2.31,5.555,2.31h0.001c2.085,0,4.083-0.831,5.555-2.308
			l1.695-1.704c3.983-3.999,9.271-6.203,14.894-6.203c5.622,0,10.91,2.203,14.89,6.199c2.144,2.156,3.751,4.7,4.797,7.466
			c-2.822-0.95-5.804-1.461-8.869-1.461c-7.432,0-14.42,2.907-19.672,8.185c-5.244,5.266-8.131,12.266-8.131,19.711
			c0,7.447,2.888,14.449,8.127,19.711l0.149,0.151L94.524,352.343z M166.63,327.637l-23.856,23.987l-23.857-23.992
			c-2.298-2.308-3.564-5.383-3.564-8.656c0-3.271,1.266-6.344,3.565-8.653c2.29-2.302,5.333-3.569,8.565-3.569
			c3.234,0,6.276,1.267,8.568,3.573l1.172,1.177c1.47,1.475,3.468,2.305,5.552,2.305c0,0,0.001,0,0.002,0
			c2.083,0,4.081-0.831,5.552-2.307l1.172-1.178c2.291-2.302,5.333-3.569,8.565-3.569c3.233,0,6.275,1.268,8.566,3.569
			c2.299,2.31,3.565,5.382,3.565,8.653C170.197,322.248,168.931,325.324,166.63,327.637z"/>
	</g>
</g>
<g>
	<g>
		<path d="M345.997,131.083h-46.555c-4.329,0-7.837,3.508-7.837,7.837c0,4.329,3.509,7.837,7.837,7.837h46.555
			c4.329,0,7.837-3.508,7.837-7.837C353.834,134.591,350.326,131.083,345.997,131.083z"/>
	</g>
</g>
<g>
	<g>
		<path d="M336.539,154.471h-27.64c-4.329,0-7.837,3.508-7.837,7.837c0,4.329,3.508,7.837,7.837,7.837h27.64
			c4.329,0,7.837-3.508,7.837-7.837C344.375,157.979,340.868,154.471,336.539,154.471z"/>
	</g>
</g>
<g>
	<g>
		<path d="M342.327,349.809H226.353c-4.329,0-7.837,3.509-7.837,7.837c0,4.329,3.508,7.837,7.837,7.837h115.974
			c4.329,0,7.837-3.508,7.837-7.837C350.164,353.317,346.656,349.809,342.327,349.809z"/>
	</g>
</g>
<g>
	<g>
		<path d="M342.327,378.337H226.353c-4.329,0-7.837,3.508-7.837,7.837c0,4.329,3.508,7.837,7.837,7.837h115.974
			c4.329,0,7.837-3.508,7.837-7.837C350.164,381.845,346.656,378.337,342.327,378.337z"/>
	</g>
</g>
<g>
	<g>
		<path d="M342.327,406.866h-85.368c-4.329,0-7.837,3.508-7.837,7.837c0,4.329,3.508,7.837,7.837,7.837h85.368
			c4.329,0,7.837-3.508,7.837-7.837C350.164,410.374,346.656,406.866,342.327,406.866z"/>
	</g>
</g>
<g>
	<g>
		<path d="M342.327,255.053h-46.651c-4.329,0-7.837,3.508-7.837,7.837v52.983c0,4.329,3.508,7.837,7.837,7.837h46.651
			c4.329,0,7.837-3.508,7.837-7.837V262.89C350.164,258.561,346.656,255.053,342.327,255.053z M334.491,308.035h-30.977v-37.309
			h30.977V308.035z"/>
	</g>
</g>
<g>
	<g>
		<path d="M494.662,31.963h-78.793c-4.329,0-7.837,3.509-7.837,7.837c0,4.329,3.508,7.837,7.837,7.837h65.948l-91.831,67.03
			c-1.973-3.494-4.417-6.747-7.321-9.665c-8.457-8.495-19.703-13.173-31.666-13.173c-10.429,0-20.314,3.555-28.281,10.096
			c-7.966-6.54-17.851-10.096-28.281-10.096c-11.963,0-23.209,4.679-31.666,13.173c-2.905,2.917-5.349,6.171-7.322,9.665
			l-91.83-67.03h218.812c4.329,0,7.837-3.508,7.837-7.837c0-4.329-3.508-7.837-7.837-7.837H150.775
			c-9.558,0-17.335,7.797-17.335,17.382v180.237H17.338C7.777,229.581,0,237.378,0,246.961v215.694
			c0,9.585,7.777,17.382,17.338,17.382h61.029c4.329,0,7.837-3.508,7.837-7.837c0-4.329-3.508-7.837-7.837-7.837H17.338
			c-0.902,0-1.665-0.783-1.665-1.708V246.961c0-0.925,0.762-1.706,1.665-1.706h343.886c0.901,0,1.662,0.782,1.662,1.706v215.694
			c0,0.926-0.762,1.708-1.662,1.708H112.849c-4.329,0-7.837,3.508-7.837,7.837c0,4.329,3.508,7.837,7.837,7.837h248.375
			c9.559,0,17.336-7.797,17.336-17.382V282.418h116.102c9.56,0,17.338-7.797,17.338-17.381V49.345
			C512,39.76,504.223,31.963,494.662,31.963z M273.879,116.059c5.494-5.518,12.795-8.558,20.558-8.558
			c7.765,0,15.066,3.04,20.561,8.559l2.167,2.177c1.47,1.476,3.469,2.307,5.553,2.307s4.082-0.831,5.553-2.307l2.167-2.177
			c5.496-5.519,12.798-8.559,20.562-8.559c7.763,0,15.063,3.04,20.558,8.558c5.503,5.53,8.536,12.883,8.536,20.706
			c0,7.821-3.031,15.176-8.538,20.711l-48.838,49.106l-48.84-49.112c-5.503-5.53-8.536-12.883-8.536-20.705
			C265.344,128.942,268.376,121.588,273.879,116.059z M378.56,266.746v-0.002v-19.783c0-9.583-7.776-17.38-17.336-17.38H216.241
			l8.853-6.463c3.496-2.551,4.261-7.454,1.709-10.949c-2.553-3.497-7.455-4.261-10.951-1.709l-26.197,19.122h-40.543V56.45
			l101.03,73.747c-0.312,2.157-0.473,4.35-0.473,6.568c0,11.995,4.653,23.275,13.098,31.76l4.429,4.455l-28.357,20.701
			c-3.496,2.552-4.261,7.454-1.709,10.951c2.553,3.497,7.455,4.262,10.951,1.709l30.298-22.115l33.729,33.917
			c2.833,2.846,6.601,4.414,10.61,4.414c4.011,0,7.78-1.568,10.612-4.416l33.729-33.915l113.053,82.521H378.56z M496.327,259.174
			l-118.084-86.193l4.426-4.451c8.447-8.491,13.099-19.773,13.099-31.764c0-2.218-0.161-4.412-0.474-6.568L496.327,56.45V259.174z"
			/>
	</g>
</g>
</svg>