<?xml version="1.0" encoding="iso-8859-1"?>
<!-- Uploaded to: SVG Repo, www.svgrepo.com, Generator: SVG Repo Mixer Tools -->
<svg fill="#000000" height="800px" width="800px" version="1.1" id="Layer_1" xmlns="http://www.w3.org/2000/svg" xmlns:xlink="http://www.w3.org/1999/xlink" 
	 viewBox="0 0 512 512" xml:space="preserve">
<g>
	<g>
		<path d="M504.082,439.592l-248.49-248.49c-10.549-10.547-27.7-10.558-38.232-0.024l-12.771,12.769
			c-5.094,5.093-7.898,11.878-7.896,19.106c0.003,7.227,2.817,14.021,7.923,19.125l248.489,248.49
			c5.279,5.278,12.211,7.918,19.14,7.918c6.916,0,13.831-2.631,19.094-7.892l12.77-12.771
			C514.64,467.289,514.629,450.139,504.082,439.592z M217.36,229.335c0,0-0.001,0-0.001-0.002c-1.703-1.703-2.642-3.971-2.643-6.387
			c0-2.409,0.928-4.666,2.617-6.356l12.771-12.769c1.749-1.749,4.047-2.623,6.35-2.623c2.313,0,4.629,0.882,6.393,2.647
			l33.849,33.849l-25.489,25.488L217.36,229.335z M491.362,465.08l-12.769,12.769c-3.507,3.505-9.224,3.494-12.744-0.024
			L263.951,275.927l25.488-25.488l201.898,201.896C494.858,455.855,494.869,461.573,491.362,465.08z"/>
	</g>
</g>
<g>
	<g>
		<path d="M142.085,189.399c-3.149-3.824-8.819-4.374-12.664-1.247c-0.111,0.088-11.02,8.803-21.846,5.483
			c-9.557-2.939-17.703-14.807-23.556-34.317c-7.74-25.801-20.318-42.926-37.385-50.904c-20.885-9.76-40.376-1.622-41.197-1.272
			c-4.55,1.949-6.643,7.192-4.727,11.757c1.916,4.565,7.187,6.715,11.766,4.836c0.536-0.222,13.266-5.315,26.752,1.113
			c12.105,5.771,21.366,19.11,27.528,39.648c7.807,26.023,19.826,41.641,35.725,46.426c3.508,1.056,6.936,1.494,10.209,1.494
			c15.549,0,27.619-9.878,28.227-10.385C144.725,198.859,145.234,193.225,142.085,189.399z"/>
	</g>
</g>
<g>
	<g>
		<path d="M169.119,144.341c-3.148-3.822-8.819-4.374-12.664-1.247c-0.111,0.088-11.015,8.807-21.846,5.483
			c-9.557-2.939-17.703-14.807-23.556-34.317c-7.74-25.801-20.318-42.926-37.385-50.904c-20.883-9.758-40.377-1.622-41.197-1.272
			c-4.55,1.949-6.643,7.192-4.727,11.757c1.916,4.565,7.185,6.712,11.766,4.836c0.537-0.222,13.267-5.315,26.752,1.113
			c12.105,5.771,21.366,19.11,27.528,39.648c7.807,26.023,19.826,41.641,35.725,46.426c3.508,1.056,6.936,1.494,10.209,1.494
			c15.549,0,27.619-9.878,28.227-10.385C171.76,153.801,172.269,148.167,169.119,144.341z"/>
	</g>
</g>
<g>
	<g>
		<path d="M205.166,99.283c-3.149-3.824-8.819-4.376-12.664-1.247c-0.11,0.088-11.017,8.803-21.846,5.483
			c-9.557-2.939-17.703-14.807-23.556-34.317c-7.74-25.801-20.318-42.926-37.385-50.904c-20.884-9.76-40.377-1.622-41.197-1.272
			c-4.55,1.949-6.643,7.192-4.727,11.757c1.916,4.565,7.185,6.715,11.766,4.836c0.535-0.22,13.264-5.313,26.752,1.113
			c12.105,5.771,21.366,19.11,27.528,39.648c7.807,26.023,19.826,41.641,35.725,46.426c3.508,1.056,6.936,1.494,10.209,1.494
			c15.549,0,27.619-9.878,28.227-10.385C207.806,108.743,208.315,103.109,205.166,99.283z"/>
	</g>
</g>
</svg>